<?xml version="1.0" encoding="UTF-8"?>
<svg id="Layer_1" xmlns="http://www.w3.org/2000/svg" baseProfile="tiny" version="1.2" viewBox="0 0 1000 1000">
  <!-- Generator: Adobe Illustrator 29.5.1, SVG Export Plug-In . SVG Version: 2.1.0 Build 141)  -->
  <path d="M910.62,494.74c14.23,2.27,30.41,2.91,44.25,6.96,12.96,3.8,11.97,22.97.7,25.16-8.64,1.68-46.11-5.98-48-4.48-4.84,23.38-10.48,46.65-19.96,68.66,11.78,5.63,53.14,15.58,41.87,35.03-11.38,19.65-39.19-5.81-54.07-9.04-20.11,43.86-51.87,83.78-89.73,113.47-13.93,95.79-82.02,207.93-174.6,244.74-15.03,5.98-48.87,17.73-54.25-5.28-5.29-22.59,13.74-41.85,21.84-62.27,8.9-22.47,28.07-94.44-12.63-95.25-11.74-.23-27.61,2.95-39.65,3.25-47.05,1.17-92.26.08-138.6-8.18-113.91-20.31-228.55-82.42-279.46-190.29-1.47-.93-4.26.02-5.96.53-9.94,2.99-25.9,14.1-34.72,15.8-12.17,2.36-20.22-9.25-15.76-20.46,3.78-9.48,33.06-17.69,42.82-22.12l-18.35-67.05-46.18,4.2c-30.09-15.76,1.34-33.5,22.34-28.82l20.48-5.18c-6-47.89-1.81-98.36,11.51-144.76,11.03-38.43,30.76-71.61,52.95-104.4.16-4.48.38-9.03-.07-13.51-4.98-49.05-11.73-119.22-.33-167.17,16.43-69.12,63.61-52.43,110.36-23.82,33.1,20.26,61.5,48.52,89.47,75.06,97.11-32.26,209.91-38.17,305.57,1.55,26.13-24.57,52.93-50.97,82.76-71.11,51.84-34.99,106.49-54.29,120.78,26.84,9.71,55.11-1.02,114.97-1.07,170.64,51.45,73.16,74.25,162.05,65.7,251.29ZM108.51,386.36c-3.45,16.53-6.87,31.77-7.64,48.88-.85,18.92,1.26,37.75,3.07,56.53.31.45,7.59-2.3,8.63-2.43,31.43-3.96,65.86-5.56,97.59-3.75,5.74.33,22.49,1.83,27.07,3.48,11.37,4.11,11.14,22.03-1.26,23.98-23.53,3.7-57.65-1.58-82.46,1.56l-46.53,4.66c5.64,20.09,9.95,40.88,19.28,59.69,36.89-11.04,80.03-31.23,118.91-32.29,19.53-.53,22.25,15.12,9.56,26.39-39.99,7.56-79.85,16.51-117.16,32.5,20.02,35.49,43.62,66.97,75.65,92.37,65.82,52.19,163.36,80.59,246.65,84.08.51.02,1.02-.02,1.53,0,1.02.04,2.04-.03,3.06,0,19.46.63,40.05.29,59.58,0,25.94-.38,55.96-8.51,77.93,9.91,29.27,24.54,21.11,82.31,10.71,114.62-4.36,13.53-10.91,26.1-16.82,38.92,68.53-27.09,121.92-97.27,145.17-165.69,6.4-18.83,8.91-38.5,14.4-57.4,4.83-16.63,10.48-15.4,21.48-25.87,28.13-26.77,51-56.76,69.46-90.94-20.18-6.63-40.46-14.59-61.09-19.86-12.46-3.18-53.56-8.06-60.38-14.48-7.37-6.93-4.52-24.99,6.28-25.98,5.35-.49,24.77,3.73,31.49,5.01,32.2,6.13,62.73,17.72,93.51,28.45,4.22-1.05,18.07-52.51,19.24-60.19-42.66-5.25-85.97-5.07-129.02-5.46-5.12-.74-9.31-4.81-9.98-9.97-1.55-11.85,11.24-15.29,20.75-15.75,3.36-.16,6.97,2.22,10.28,1.41,1.85-.45-1.49-1.06,6.32-1.88,33.8-3.56,66.2,1.48,99.28,1.75,2.39.02,4.53,1.61,6.91,1.61-.36-17.21,2.2-33.97,1.55-51.25-.09-2.29-1.47-4.26-1.54-5.27-1.12-17.07-2.23-30.47-6.11-47.36-11-47.83-31.75-93.08-60.79-132.46-2.63-57.8,12.8-123.99.52-180.79-6.06-28.06-16.72-27.11-41.6-17-45.32,18.42-83.42,64.34-119.56,95.84l-8.12.37c-14.68-6.56-29.95-12.15-45.43-16.49-13.87-3.89-28.49-7.26-42.77-9.17-17.1-2.29-34.69-3.19-51.94-3.06-10.2-2.18-13.04-1.49-22.91,0-16.89-.59-33.71.75-50.41,3.06-16.72,2.31-32.59,6.65-48.88,10.69-14.19,3.53-34.21,11.21-46.95,13.38-3.12.53-7,.96-10.03.05-3.9-1.17-37.03-37.09-43.83-43.24-19.26-17.41-67.03-56.02-92.39-57.32-13.56-.7-16.06,5.54-19.37,17.4-15.63,55.84.14,130.21,1.48,187.74-6.85,13.9-18.11,24.83-26.33,37.95-18.47,29.46-28.96,59.21-36.03,93.06Z" fill="#582a10"/>
  <g>
    <path d="M100.87,435.24c.77-17.11,4.18-32.35,7.64-48.88l98.45-1.44c26.58,12.81-5.39,29.73-19.73,35.09-27.54,10.3-57.03,14.52-86.35,15.24Z" fill="#dd6a14"/>
    <path d="M873.86,386.36c3.88,16.88,4.99,30.28,6.11,47.36-12.39.44-24.74-1.53-36.95-3.54-14.96-2.46-59.31-11.14-69.23-20.9-6.92-6.81-8.88-22.46,3.15-24.35l96.91,1.43Z" fill="#dd6a14"/>
    <path d="M524.03,782.02c-19.52.29-40.12.63-59.58,0,1.59-2.53,5.8-1.53,8.38-1.55,14.25-.15,28.57-.18,42.82,0,2.59.03,6.79-.98,8.38,1.55Z" fill="#fda11e"/>
    <path d="M461.4,782.02c-.51-.02-1.02.02-1.53,0l.76-1.5.76,1.5Z" fill="#fda11e"/>
    <path d="M506.04,519.59c-.83,22.33-3.02,48.53,13.37,66.17,12.31,13.25,32.6,14.28,48.44,7.11,9.29-4.2,24.08-20.57,33.89-5.42,16.1,24.88-28.45,40.42-46.41,41.78-24.72,1.88-48.92-7.01-64.87-25.95-11.32,20.26-41.51,27.53-63.49,26.03-17.74-1.21-65.13-16.66-47.39-41.4,12.11-16.89,27.62,5.27,40.18,7.37,9.08,1.52,23.36.53,32.17-2.24,29-9.08,25.05-47.1,24.46-71.21-11.48-12.96-48.9-37.72-47.05-56.66,1-10.24,12.06-15.52,20.96-17.35,17.85-3.67,73.78-3.84,90.52,1.95,7.42,2.56,14.84,10.4,15.2,18.45.65,14.57-38.23,42.94-49.98,51.37Z" fill="#582a10"/>
    <path d="M366.14,357.88c23.44,24.71,14.12,79.19-23.13,83.48-65.06,7.5-66.75-92.14-12.3-96.31,12.26-.94,26.84,3.77,35.43,12.82Z" fill="#582a10"/>
    <path d="M381.96,137.35c1.26,25.28-1.67,52.11-.06,77.21.93,14.53,4.92,36,22.61,38.56,20.24,2.93,25.33-20.04,26.4-35.51,2.04-29.45-1.65-61.26-.06-90.96,16.71-2.31,33.52-3.64,50.41-3.06-3.8.58-8.59,2.79-13.75,1.53l1.5,150.51c6.17,23.87,23.02,32.55,37.34,8.24,5.47-9.29,7.68-17.35,8.51-28.16,2.4-31.27,1.65-76.82.08-108.51-.35-7.11-2.85-14.53-1.58-22.1-3.87,1.34-6.9-1.03-9.18-1.52,17.25-.13,34.84.77,51.94,3.06-1.74,2.54-1.49,5.42-1.59,8.33-.87,25.01-1.76,57.96.08,82.55.76,10.11,4.54,32.88,16.34,35.59,21.84,5.02,29.83-24.93,31.06-41.62,1.77-24.13-.18-51.72-3.11-75.68,15.48,4.34,30.75,9.93,45.43,16.49l8.12-.37c36.15-31.5,74.25-77.42,119.56-95.84,24.89-10.11,35.54-11.06,41.6,17,12.27,56.8-3.16,122.99-.52,180.79,29.04,39.38,49.79,84.63,60.79,132.46l-96.91-1.43c-12.03,1.89-10.08,17.54-3.15,24.35,9.92,9.76,54.26,18.44,69.23,20.9,12.21,2.01,24.56,3.98,36.95,3.54.07,1.01,1.45,2.97,1.54,5.27.66,17.28-1.91,34.04-1.55,51.25-2.39,0-4.53-1.59-6.91-1.61-33.08-.27-65.48-5.31-99.28-1.75-7.81.82-4.48,1.43-6.32,1.88-3.31.8-6.91-1.58-10.28-1.41-9.52.46-22.3,3.9-20.75,15.75.67,5.16,4.87,9.24,9.98,9.97,43.05.39,86.36.21,129.02,5.46-1.17,7.68-15.03,59.14-19.24,60.19-30.78-10.72-61.31-22.31-93.51-28.45-6.72-1.28-26.14-5.5-31.49-5.01-10.8.99-13.65,19.05-6.28,25.98,6.82,6.41,47.91,11.29,60.38,14.48,20.63,5.27,40.9,13.24,61.09,19.86-18.46,34.19-41.33,64.17-69.46,90.94-11,10.47-16.65,9.25-21.48,25.87-5.49,18.9-8,38.57-14.4,57.4-23.25,68.42-76.63,138.6-145.17,165.69,5.91-12.83,12.46-25.39,16.82-38.92,10.4-32.31,18.56-90.08-10.71-114.62-21.97-18.42-51.99-10.29-77.93-9.91-1.59-2.53-5.8-1.52-8.38-1.55-14.25-.18-28.57-.15-42.82,0-2.58.03-6.79-.98-8.38,1.55-1.02-.03-2.04.04-3.06,0l-.76-1.5-.76,1.5c-83.29-3.5-180.83-31.89-246.65-84.08-32.03-25.4-55.63-56.88-75.65-92.37,37.31-15.99,77.17-24.95,117.16-32.5,12.7-11.27,9.97-26.92-9.56-26.39-38.89,1.06-82.03,21.25-118.91,32.29-9.33-18.8-13.64-39.59-19.28-59.69l46.53-4.66c24.81-3.14,58.93,2.14,82.46-1.56,12.4-1.95,12.63-19.87,1.26-23.98-4.58-1.65-21.33-3.16-27.07-3.48-31.73-1.81-66.16-.21-97.59,3.75-1.04.13-8.32,2.88-8.63,2.43-1.81-18.78-3.92-37.61-3.07-56.53,29.32-.71,58.81-4.94,86.35-15.24,14.34-5.36,46.32-22.28,19.73-35.09l-98.45,1.44c7.07-33.85,17.56-63.6,36.03-93.06,8.23-13.12,19.48-24.05,26.33-37.95-1.34-57.53-17.11-131.9-1.48-187.74,3.32-11.85,5.81-18.1,19.37-17.4,25.37,1.31,73.13,39.91,92.39,57.32,6.8,6.15,39.92,42.07,43.83,43.24,3.03.91,6.91.48,10.03-.05,12.73-2.17,32.75-9.85,46.95-13.38ZM366.14,357.88c-8.59-9.05-23.17-13.76-35.43-12.82-54.45,4.17-52.76,103.8,12.3,96.31,37.26-4.29,46.58-58.77,23.13-83.48ZM639.73,345.48c-54.68,8.72-46.16,102.94,14.74,95.7,52.81-6.28,46.59-105.48-14.74-95.7ZM506.04,519.59c11.75-8.43,50.63-36.8,49.98-51.37-.36-8.05-7.78-15.89-15.2-18.45-16.74-5.78-72.68-5.62-90.52-1.95-8.9,1.83-19.96,7.11-20.96,17.35-1.85,18.94,35.57,43.7,47.05,56.66.58,24.1,4.54,62.12-24.46,71.21-8.82,2.76-23.09,3.75-32.17,2.24-12.56-2.1-28.07-24.26-40.18-7.37-17.74,24.74,29.66,40.2,47.39,41.4,21.97,1.49,52.17-5.77,63.49-26.03,15.96,18.94,40.15,27.83,64.87,25.95,17.96-1.36,62.51-16.9,46.41-41.78-9.81-15.15-24.6,1.21-33.89,5.42-15.84,7.17-36.13,6.14-48.44-7.11-16.39-17.65-14.2-43.84-13.37-66.17Z" fill="#ef8a1d"/>
    <path d="M639.73,345.48c61.33-9.78,67.55,89.43,14.74,95.7-60.91,7.24-69.42-86.98-14.74-95.7Z" fill="#582a10"/>
    <g>
      <path d="M504.17,123.6c2.27.49,5.31,2.86,9.18,1.52-1.27,7.57,1.23,14.99,1.58,22.1,1.57,31.68,2.32,77.24-.08,108.51-.83,10.81-3.03,18.87-8.51,28.16-14.33,24.31-31.17,15.63-37.34-8.24l-1.5-150.51c5.16,1.26,9.95-.95,13.75-1.53,9.88-1.49,12.72-2.18,22.91,0Z" fill="#dd6a14"/>
      <path d="M430.84,126.66c-1.59,29.7,2.1,61.5.06,90.96-1.07,15.47-6.16,38.44-26.4,35.51-17.7-2.56-21.68-24.03-22.61-38.56-1.61-25.1,1.33-51.93.06-77.21,16.29-4.05,32.17-8.38,48.88-10.69Z" fill="#dd6a14"/>
      <path d="M598.89,135.82c2.93,23.95,4.89,51.54,3.11,75.68-1.23,16.7-9.22,46.64-31.06,41.62-11.8-2.71-15.58-25.48-16.34-35.59-1.84-24.59-.96-57.54-.08-82.55.1-2.9-.15-5.78,1.59-8.33,14.29,1.91,28.9,5.27,42.77,9.17Z" fill="#dd6a14"/>
    </g>
  </g>
</svg>